<svg xmlns="http://www.w3.org/2000/svg" viewBox="0 0 800 716"><path d="M654 43a69.872 69.872 0 0 1 5.738 5.348c.526.53 1.052 1.062 1.593 1.61a837.164 837.164 0 0 1 4.981 5.105l3.4 3.455c2.774 2.817 5.534 5.646 8.288 8.482-3.39 3.433-6.785 6.514-10.625 9.438l-1.68 1.28c-5.651 4.29-11.379 8.477-17.101 12.67-7.143 5.247-14.192 10.611-21.213 16.019l-2.479 1.902-2.43 1.894C620 112 620 112 617.297 113.536c-5.208 3.048-7.803 5.438-9.527 11.304a284.092 284.092 0 0 0-1.265 5.795c-.806 3.774-1.785 7.502-2.735 11.24a1354.927 1354.927 0 0 0-3.254 13.269c-.835 3.444-1.684 6.885-2.534 10.327l-1.595 6.595-.773 3.103-.69 2.896-.616 2.53c-.558 4.358.08 6.61 2.78 10.121.919.998 1.85 1.985 2.789 2.964l1.538 1.647a600.738 600.738 0 0 0 5.081 5.333l1.768 1.84c3.093 3.212 6.202 6.408 9.321 9.595a479.917 479.917 0 0 1 7.613 7.983 451.21 451.21 0 0 0 9.263 9.626c1.18 1.21 2.34 2.439 3.48 3.686 6.003 6.816 6.003 6.816 14.224 9.736 4.796-.463 9.259-1.854 13.792-3.434 2.703-.916 5.44-1.52 8.23-2.108 4.852-1.13 9.701-2.273 14.55-3.42 2.073-.49 4.147-.975 6.221-1.458 3.044-.707 6.084-1.426 9.124-2.147l2.8-.645c7.033-1.688 11.53-3.896 16.368-9.414l2.367-2.695c3.061-3.603 6.028-7.277 9-10.953 2.983-3.57 6.128-6.966 9.297-10.371a190.29 190.29 0 0 0 8.586-9.981c4.103-5.1 8.46-9.893 12.922-14.676 2.624-2.874 5.109-5.817 7.578-8.824 5.898 4.936 11.488 10.138 17 15.5l2.676 2.512 2.511 2.457 2.293 2.2C799 188 799 188 798.873 190.944a67.699 67.699 0 0 1-3.033 8.502l-1.382 3.211-1.52 3.469-1.583 3.65c-1.772 4.081-3.561 8.154-5.355 12.225l-1.005 2.282a6734.723 6734.723 0 0 1-11.33 25.558 414.956 414.956 0 0 1-2.633 5.845c-.773 1.733-1.5 3.487-2.204 5.249-5.804 13.842-16.243 23.842-26.472 34.545a224.98 224.98 0 0 0-7.019 7.737c-20.109 23.121-20.109 23.121-35.781 24.512-8.93.478-17.834-.344-26.717-1.21-6.045-.573-12.083-.835-18.15-1.035l-3.159-.106a5032.3 5032.3 0 0 0-6.375-.204 2618.95 2618.95 0 0 1-12.792-.45 4235.4 4235.4 0 0 0-6.415-.231 1127.35 1127.35 0 0 1-16.329-.694c-5.403-.27-10.805-.47-16.212-.622-2.022-.07-4.042-.164-6.061-.286-12.07-.862-12.07-.862-22.65 4.148-3.608 3.365-6.683 7.068-9.696 10.962-1.2 1.382-2.406 2.76-3.625 4.125l-1.559 1.836c-4.86 5.457-10.219 10.488-15.419 15.621-5.4 5.338-10.724 10.671-15.658 16.452-3.597 4.066-7.507 7.836-11.364 11.654-1.25 1.242-1.25 1.242-2.523 2.51-6.339 6.302-6.339 6.302-9.375 9.259-2.262 2.323-4.41 4.705-6.563 7.129-5.288 5.91-10.896 11.473-16.539 17.039-7.64 7.458-7.64 7.458-14.836 15.336-5.325 6.23-11.313 11.867-17.142 17.621-7.154 7.014-7.154 7.014-13.897 14.418-5.308 6.22-11.287 11.841-17.103 17.582-5.41 5.348-10.746 10.692-15.689 16.483-3.427 3.883-7.153 7.482-10.833 11.123l-2.379 2.365a3829.067 3829.067 0 0 1-9.273 9.19c-2.3 2.335-4.48 4.748-6.66 7.194-6.61 7.323-13.663 14.218-20.682 21.145-4.588 4.545-9.023 9.127-13.223 14.033-2.94 3.342-6.116 6.447-9.283 9.572l-1.945 1.932a3411.344 3411.344 0 0 1-7.996 7.912c-2.399 2.433-4.724 4.919-7.04 7.43-8.98 9.74-18.298 19.14-27.796 28.375-2.305 2.363-4.494 4.782-6.684 7.25-5.288 5.91-10.896 11.473-16.539 17.039-5.734 5.656-11.407 11.29-16.645 17.418-3.437 3.888-7.167 7.496-10.855 11.144l-2.379 2.366a4303.204 4303.204 0 0 1-4.525 4.491 1440.005 1440.005 0 0 0-4.768 4.757c-10.226 10.208-19.616 16.295-34.453 16.386-12.839-.174-23.015-3.547-32.625-12.5-9.029-9.843-13.092-21.462-13.125-34.687.719-12.051 5.64-23.417 14.703-31.523a612.786 612.786 0 0 1 3.992-3.426c2.711-2.412 5.26-4.967 7.805-7.551a179.758 179.758 0 0 1 11.406-10.625c3.14-2.811 6.068-5.828 9.025-8.826 3.223-3.249 6.562-6.273 10.042-9.24 2.441-2.179 4.727-4.481 7.027-6.809 2.896-2.931 5.802-5.764 8.938-8.438 3.351-2.864 6.468-5.925 9.562-9.062 3.69-3.74 7.475-7.282 11.473-10.691 2.441-2.179 4.727-4.481 7.027-6.809 2.896-2.931 5.802-5.764 8.938-8.438 3.351-2.864 6.468-5.925 9.562-9.062a179.945 179.945 0 0 1 11.406-10.625c3.14-2.811 6.068-5.828 9.025-8.826 3.223-3.249 6.562-6.273 10.042-9.24 2.441-2.179 4.727-4.481 7.027-6.809 2.896-2.931 5.802-5.764 8.938-8.438 3.351-2.864 6.468-5.925 9.562-9.062a179.945 179.945 0 0 1 11.406-10.625c3.14-2.811 6.068-5.828 9.025-8.826 3.223-3.249 6.562-6.273 10.042-9.24 2.441-2.179 4.727-4.481 7.027-6.809 2.896-2.931 5.802-5.764 8.938-8.438 3.351-2.864 6.468-5.925 9.562-9.062a179.945 179.945 0 0 1 11.406-10.625c3.14-2.811 6.068-5.828 9.025-8.826 3.223-3.249 6.562-6.273 10.042-9.24 2.441-2.179 4.727-4.481 7.027-6.809 2.896-2.931 5.802-5.764 8.938-8.438 3.351-2.864 6.468-5.925 9.562-9.062 3.69-3.74 7.475-7.282 11.473-10.691 2.441-2.179 4.727-4.481 7.027-6.809 2.896-2.931 5.802-5.764 8.938-8.438 3.351-2.864 6.468-5.925 9.562-9.062a179.945 179.945 0 0 1 11.406-10.625c3.14-2.811 6.068-5.828 9.025-8.826 3.223-3.249 6.562-6.273 10.042-9.24 3.342-2.982 6.435-6.21 9.582-9.395 2.13-2.103 4.3-4.09 6.57-6.039l1.796-1.584a81.814 81.814 0 0 1 4.217-3.4c3.35-2.786 5.597-4.894 6.374-9.285-.052-3.55-.37-6.986-.784-10.512a600.623 600.623 0 0 1-.358-4.044c-.252-2.902-.525-5.8-.813-8.698-.768-7.85-1.288-15.721-1.826-23.59l-.17-2.481c-6.485-94.577-6.485-94.577 14.903-119.681 11.512-12.606 25.813-22.123 40.763-30.137 2.708-1.47 5.363-3.029 8.026-4.578 9.762-5.554 19.527-9.662 30.251-12.934 6.786-2.106 13.2-5.086 19.664-8.009 4.018-1.806 8.072-3.53 12.122-5.262 1.64-.714 3.27-1.449 4.88-2.223 3.796-1.806 5.832-2.308 9.83-.957ZM108.83-.003c3.275 1.514 5.545 3.977 8.042 6.514l1.767 1.76c1.958 1.952 3.904 3.915 5.85 5.878l4.199 4.197c3.804 3.803 7.599 7.615 11.392 11.43 3.963 3.982 7.936 7.956 11.907 11.93a23157.87 23157.87 0 0 1 22.545 22.61c8.55 8.584 17.11 17.16 25.669 25.734A74389.24 74389.24 0 0 1 253 143c-1.269 2.771-2.577 4.83-4.72 6.993l-1.673 1.704-1.83 1.832-1.931 1.957a2181.237 2181.237 0 0 1-6.338 6.377 5934.77 5934.77 0 0 1-13.637 13.692c-3.956 3.96-7.895 7.938-11.83 11.918a2732.146 2732.146 0 0 1-9.095 9.134 1090.506 1090.506 0 0 0-4.361 4.398 895.594 895.594 0 0 1-6.104 6.113l-1.817 1.862c-1.69 1.662-1.69 1.662-4.664 4.02-4.309-.457-6.605-3.202-9.503-6.162l-1.627-1.626a1243.489 1243.489 0 0 1-5.292-5.34 4082.322 4082.322 0 0 1-13.349-13.436c-3.285-3.317-6.58-6.625-9.874-9.934-6.46-6.492-12.91-12.994-19.355-19.502-5.654 4.704-10.869 9.733-16.056 14.943l-2.664 2.663c-2.39 2.39-4.777 4.782-7.163 7.176-2.502 2.508-5.007 5.014-7.512 7.52-4.733 4.736-9.464 9.475-14.194 14.215-5.388 5.4-10.78 10.796-16.171 16.193A87708.47 87708.47 0 0 0 29 253c-3.316-1.105-3.926-1.845-6.063-4.477-2.765-3.267-5.661-6.212-8.812-9.109l-2.543-2.383a314.34 314.34 0 0 0-5.258-4.789l-2.512-2.39-2.292-2.1c-4.011-7.264.725-18.975 2.483-26.568l.932-4.088c.837-3.673 1.682-7.343 2.53-11.013.707-3.072 1.412-6.144 2.116-9.216 1.662-7.246 3.33-14.49 5.002-21.734 1.722-7.464 3.434-14.931 5.14-22.4a10366.04 10366.04 0 0 1 4.426-19.274c.884-3.83 1.764-7.661 2.638-11.494.821-3.6 1.65-7.197 2.487-10.793.45-1.945.892-3.892 1.333-5.84l.824-3.521.703-3.053c1.393-4.436 3.644-7.78 6.895-11.061l1.806-1.836 1.96-1.962 2.08-2.106a2522.59 2522.59 0 0 1 6.809-6.848l4.733-4.76c3.305-3.322 6.613-6.638 9.924-9.952a3820.48 3820.48 0 0 0 12.714-12.802c3.25-3.28 6.512-6.55 9.777-9.816 1.567-1.57 3.13-3.146 4.688-4.725 2.174-2.2 4.362-4.384 6.556-6.565l1.954-2 1.814-1.783 1.563-1.57C107 0 107 0 108.83-.003Z"/><path d="M466 460c2.858 1.299 4.924 2.673 7.143 4.886l1.816 1.796 1.967 1.976 2.111 2.098c2.34 2.326 4.671 4.66 7.003 6.994a10667.171 10667.171 0 0 1 18.665 18.62c2.84 2.84 5.682 5.677 8.525 8.515 9.408 9.39 18.812 18.785 28.21 28.185l1.536 1.536 1.538 1.537c8.209 8.21 16.428 16.41 24.651 24.605 8.453 8.424 16.897 16.855 25.334 25.294 4.734 4.734 9.47 9.465 14.215 14.188 4.466 4.447 8.923 8.904 13.373 13.368 1.63 1.632 3.264 3.261 4.901 4.886 14.374 14.274 26.635 28.534 27.082 49.868-.486 12.914-4.221 22.977-13.32 32.265-10.812 9.369-22.848 11.307-36.639 10.578C584.307 709.363 571.106 694.287 558 681a46452.039 46452.039 0 0 1-8.005-8.005l-1.645-1.645L400 523c2.387-3.029 4.653-5.728 7.625-8.188 3.283-2.8 6.345-5.74 9.375-8.812a176.304 176.304 0 0 1 10.938-10.156c3.352-2.998 6.46-6.236 9.62-9.434 2.714-2.679 5.55-5.156 8.446-7.633 3.052-2.717 5.878-5.65 8.746-8.558 3.28-3.235 6.754-6.222 10.25-9.219l1-1ZM284 141c4.157 3.498 8.178 7.054 12.017 10.904l2.79 2.79 2.94 2.954 3.063 3.069c2.667 2.67 5.331 5.344 7.995 8.019 2.726 2.737 5.456 5.471 8.185 8.205 5.34 5.35 10.676 10.704 16.01 16.059-3.81 4.546-7.742 8.892-11.934 13.088l-1.714 1.727a4248.04 4248.04 0 0 1-5.638 5.664l-4.062 4.086c-4.424 4.451-8.854 8.896-13.285 13.341l-4.582 4.598a33297.43 33297.43 0 0 1-19.05 19.102 17383.853 17383.853 0 0 0-27.276 27.382 10469.82 10469.82 0 0 1-19.2 19.264c-3.827 3.83-7.65 7.666-11.462 11.51-3.58 3.61-7.17 7.207-10.77 10.796a837.717 837.717 0 0 0-3.953 3.978 713.08 713.08 0 0 1-5.394 5.392l-1.58 1.622c-1.47 1.437-1.47 1.437-4.1 3.45-4.154-.107-6.221-2.859-9.044-5.703l-1.48-1.479a1025.65 1025.65 0 0 1-4.804-4.853l-3.346-3.359a3367.803 3367.803 0 0 1-8.779-8.853c-2.984-3.015-5.977-6.021-8.969-9.028-5.868-5.9-11.726-11.81-17.578-17.725 3.823-4.568 7.776-8.92 11.999-13.119l1.735-1.738c1.9-1.901 3.803-3.8 5.707-5.697l4.11-4.112c3.707-3.706 7.416-7.41 11.126-11.112 3.881-3.875 7.76-7.753 11.639-11.631 7.34-7.336 14.681-14.67 22.024-22.003 8.363-8.351 16.722-16.705 25.081-25.06C249.611 175.35 266.804 158.173 284 141ZM276 269c4.328 3.628 8.463 7.348 12.434 11.371l1.46 1.471c2.023 2.04 4.042 4.087 6.06 6.133 1.491 1.51 2.985 3.015 4.48 4.521l2.658 2.693c2.175 2.152 4.443 4.164 6.76 6.163 4.22 3.66 8.16 7.55 12.086 11.523l2.195 2.207c3.062 3.079 6.12 6.164 9.177 9.248 2.248 2.267 4.5 4.531 6.752 6.795l2.053 2.078c3.835 3.854 7.784 7.488 11.9 11.04 3.395 3.006 6.573 6.223 9.766 9.44l2.118 2.123c2.203 2.208 4.402 4.42 6.601 6.632l4.516 4.529C380.68 370.642 384.34 374.32 388 378c-1.448 3.043-2.7 4.852-5.313 7-3.781 3.198-7.435 6.504-11.062 9.875-14.352 13.296-14.352 13.296-19.938 17.875-2.687 2.183-2.687 2.183-4.972 4.535-2.88 2.88-5.84 5.648-8.84 8.402l-1.696 1.562A2891.92 2891.92 0 0 1 320 442c-3.516-1.503-5.777-3.53-8.467-6.227l-2.694-2.685-2.932-2.954-3.105-3.104c-2.808-2.807-5.61-5.62-8.41-8.435-2.929-2.941-5.863-5.877-8.797-8.813-5.553-5.56-11.102-11.125-16.648-16.691-6.315-6.338-12.636-12.67-18.958-19.001A60743.863 60743.863 0 0 1 211 335a193.37 193.37 0 0 1 12.097-13.21l1.747-1.748c1.88-1.88 3.764-3.756 5.648-5.632l3.943-3.938c3.44-3.437 6.883-6.87 10.327-10.303 3.521-3.51 7.04-7.025 10.558-10.538 6.89-6.88 13.784-13.756 20.68-20.631ZM134 181c3.744 3.167 7.452 6.326 10.916 9.802l2.06 2.062 2.145 2.16 2.257 2.26c2.356 2.362 4.708 4.726 7.06 7.091l4.818 4.832c3.917 3.928 7.832 7.86 11.744 11.793-1.553 3.683-3.798 6.08-6.582 8.92l-1.406 1.44c-1.53 1.566-3.07 3.123-4.61 4.68l-1.598 1.619a3036.59 3036.59 0 0 1-8.396 8.468 1374.52 1374.52 0 0 0-8.606 8.75 1063.433 1063.433 0 0 1-6.67 6.732 402.573 402.573 0 0 0-3.167 3.227c-5.853 6.02-10.35 10.397-18.965 11.164-1.463.315-2.922.65-4.376 1.003-30.939 6.879-30.939 6.879-39.442 2.262C64.364 274.666 59.325 267.896 55 261c4.25-5.074 8.691-9.83 13.382-14.496l2.16-2.16a6448.27 6448.27 0 0 1 7.013-6.996l4.884-4.88c4.269-4.265 8.54-8.527 12.813-12.789 4.366-4.355 8.729-8.713 13.092-13.072C116.893 198.07 125.446 189.533 134 181ZM135 299c3.183 1.405 5.313 3.07 7.759 5.532l2.183 2.183 2.324 2.355 2.404 2.413a3831.28 3831.28 0 0 1 7.58 7.642l5.148 5.176A7505.67 7505.67 0 0 1 175 337c-1.433 3.272-3.188 5.432-5.715 7.942l-2.305 2.305-2.488 2.456-2.547 2.539a4276.4 4276.4 0 0 1-8.07 8.008 15194.91 15194.91 0 0 0-5.465 5.438A8377.94 8377.94 0 0 1 135 379c-3.183-1.405-5.313-3.07-7.759-5.532l-2.183-2.183-2.324-2.355-2.404-2.413a3831.28 3831.28 0 0 1-7.58-7.642l-5.148-5.176A7505.67 7505.67 0 0 1 95 341c1.433-3.272 3.188-5.432 5.715-7.942l2.305-2.305 2.488-2.456 2.547-2.539a4276.4 4276.4 0 0 1 8.07-8.008l5.465-5.438A8377.94 8377.94 0 0 1 135 299ZM337 208c3.685 3.118 7.347 6.217 10.746 9.648l1.846 1.856 1.846 1.871 1.927 1.941c1.548 1.56 3.092 3.12 4.635 4.684-1.39 3.137-3.01 5.255-5.44 7.667l-2.123 2.122-2.289 2.258-2.345 2.337c-2.471 2.46-4.95 4.913-7.428 7.366a12865.5 12865.5 0 0 0-5.031 5.004c-4.11 4.087-8.225 8.169-12.344 12.246-3.425-1.618-5.657-3.423-8.328-6.133l-2.422-2.441-2.5-2.551-2.547-2.574A2085.82 2085.82 0 0 1 299 247c4.306-5.148 8.823-9.958 13.586-14.684l2.127-2.122c2.218-2.213 4.44-4.422 6.662-6.631l4.543-4.53c3.691-3.68 7.386-7.358 11.082-11.033Z"/></svg>