<svg xmlns="http://www.w3.org/2000/svg" xmlns:xlink="http://www.w3.org/1999/xlink" version="1.0" viewBox="0 0 375 187.5"><defs><path id="reuse-0" d="M.5 0h374v187H.5Zm0 0"/></defs><defs><clipPath id="a"><use xlink:href="#reuse-0"/></clipPath><clipPath id="c"><path d="M114.7 0H142v27h-27.3Zm0 0"/></clipPath><clipPath id="d"><path d="M157 48h28v27.969h-28Zm0 0"/></clipPath><clipPath id="e"><path d="M129 4h70.969v71H129Zm0 0"/></clipPath><clipPath id="f"><path d="M106 141h114v42.828H106Zm0 0"/></clipPath><clipPath id="g"><path d="M0 0h114v43H0z"/></clipPath><clipPath id="h"><path d="M.563 84h340.37v67H.564Zm0 0"/></clipPath><clipPath id="i"><path d="M0 0h341v67H0z"/></clipPath><clipPath id="b"><path d="M0 0h341v184H0z"/></clipPath></defs><g fill="transparent" clip-path="url(#a)"><use xlink:href="#reuse-0"/><use xlink:href="#reuse-0"/></g><g clip-path="url(#b)" transform="translate(21)"><path d="m145.008 15.035 5.492 5.488-15.39 15.391-5.489-5.488 15.387-15.39"/><g clip-path="url(#c)"><path d="m141.613 15.297-7.32 7.316-6.14-6.14-10.325 10.324-3.008-3.004 3.66-15.945 7.84-7.84 15.293 15.289"/></g><path d="m150.598 22.191 2.156 2.157-3.996 3.992-2.156-2.156 3.996-3.993M129.035 40.227l4.313-4.313-4.118-4.117-4.312 4.312 4.117 4.118M127.809 29.102l5.539-5.54-4.266-4.261-8.332 8.328 2.133 2.133 4.926-.66M155.96 40.227 144.13 28.66l-6.828 6.828 11.383 11.383 7.277-6.644"/><g clip-path="url(#d)"><path d="m164.375 48.906-7.023 6.633 18.175 18.176c2.164 2.164 5.45 2.39 7.332.504 1.887-1.883 1.66-5.168-.504-7.332l-17.98-17.98"/></g><g clip-path="url(#e)"><path d="m195.887 28.648 3.73-8.543-2.707-2.707-5.941 6.844-7.14 1.727-6.169-6.168 1.727-7.14 7.297-5.49-2.711-2.71-8.543 3.73-5.965 5.97.316 15.323.125.121-39.398 37.317a4.706 4.706 0 0 0 0 6.652 4.708 4.708 0 0 0 6.648 0l38.012-39.265 14.754.308 5.965-5.969"/></g><g clip-path="url(#f)"><g fill="#17171c" clip-path="url(#g)" transform="translate(106 141)"><path d="M10.029 10.876c1.718 0 3.101.633 4.156 1.89 1.062 1.25 1.594 2.9 1.594 4.938 0 2.024-.524 3.653-1.563 4.89-1.031 1.231-2.39 1.845-4.078 1.845h-3.64c-.094 0-.141.046-.141.14v10.64c0 .243-.117.36-.344.36H4.216c-.242 0-.36-.117-.36-.36v-24c0-.226.118-.343.36-.343Zm-.313 11.516c1.05 0 1.906-.422 2.563-1.266.664-.844 1-1.973 1-3.39 0-1.407-.336-2.536-1-3.391-.657-.863-1.512-1.297-2.563-1.297H6.497c-.093 0-.14.047-.14.14v9.063c0 .094.047.14.14.14ZM19.824 35.58c-.242 0-.36-.118-.36-.36V11.25c0-.226.118-.344.36-.344h1.797c.238 0 .359.118.359.344v22c0 .094.047.14.14.14h8.063c.238 0 .36.122.36.36v1.469c0 .242-.122.36-.36.36ZM39.248 35.86c-1.813 0-3.274-.617-4.375-1.859-1.106-1.25-1.656-2.894-1.656-4.937V11.25c0-.226.113-.344.343-.344h1.813c.226 0 .344.118.344.344v18.094c0 1.293.32 2.34.968 3.14.645.793 1.5 1.188 2.563 1.188 1.07 0 1.937-.395 2.594-1.188.664-.8 1-1.847 1-3.14V11.25c0-.226.113-.344.343-.344h1.797c.239 0 .36.118.36.344v17.813c0 2.043-.559 3.687-1.672 4.937-1.117 1.242-2.59 1.86-4.422 1.86ZM60.96 11.157c.063-.164.203-.25.422-.25h1.828c.227 0 .344.118.344.344V35.22c0 .242-.117.36-.344.36h-1.797c-.242 0-.36-.118-.36-.36V16.33c0-.071-.015-.11-.046-.11s-.074.027-.125.078l-3.672 7.61c-.062.167-.18.25-.344.25-.187 0-.32-.083-.39-.25l-3.672-7.579c-.043-.039-.086-.062-.125-.062-.031 0-.047.03-.047.093v18.86c0 .242-.117.36-.344.36h-1.812c-.23 0-.344-.118-.344-.36V11.25c0-.226.113-.344.344-.344h1.843c.207 0 .348.086.422.25l4.016 8.14c.02.044.05.063.094.063.05 0 .093-.02.125-.062ZM80.617 28.876c.02 2.117-.546 3.762-1.703 4.938-1.148 1.18-2.683 1.765-4.61 1.765h-5.39c-.242 0-.36-.117-.36-.36V11.252c0-.226.118-.344.36-.344h5.078c2.02 0 3.602.559 4.75 1.672 1.157 1.117 1.735 2.711 1.735 4.781 0 2.625-.977 4.422-2.922 5.391-.055.024-.078.047-.078.078 0 .024.008.043.031.063 2.07 1.199 3.11 3.195 3.11 5.984Zm-9.406-15.781c-.094 0-.14.047-.14.14v8.485c0 .094.046.14.14.14h2.781c1.27 0 2.254-.375 2.954-1.125.707-.75 1.062-1.804 1.062-3.171 0-1.407-.355-2.5-1.062-3.282-.7-.789-1.684-1.187-2.954-1.187Zm2.922 20.265c1.238 0 2.21-.414 2.922-1.25.707-.832 1.062-2.003 1.062-3.515 0-1.52-.355-2.703-1.062-3.547-.711-.852-1.684-1.281-2.922-1.281h-2.922c-.094 0-.14.047-.14.14v9.313c0 .094.046.14.14.14ZM95.319 12.735c0 .243-.121.36-.36.36h-8.171c-.094 0-.141.047-.141.14v8.735c0 .094.047.14.14.14h5.141c.238 0 .36.122.36.36v1.515c0 .23-.122.344-.36.344h-5.14c-.094 0-.141.047-.141.14v8.782c0 .094.047.14.14.14h8.172c.239 0 .36.122.36.36v1.469c0 .242-.121.36-.36.36H84.491c-.242 0-.36-.118-.36-.36V11.25c0-.226.118-.344.36-.344h10.468c.239 0 .36.118.36.344ZM109.125 35.58c-.211 0-.352-.095-.422-.282l-3.594-10.89c-.023-.071-.07-.11-.14-.11h-3.063c-.094 0-.14.047-.14.14V35.22c0 .242-.122.36-.36.36h-1.797c-.242 0-.36-.118-.36-.36V11.25c0-.226.118-.344.36-.344h5.813c1.718 0 3.101.633 4.156 1.89 1.062 1.25 1.594 2.888 1.594 4.907 0 1.531-.329 2.852-.985 3.953-.656 1.106-1.555 1.883-2.687 2.328-.094.024-.125.079-.094.172l3.828 11.032.047.14c0 .168-.11.25-.328.25Zm-7.22-22.485c-.093 0-.14.047-.14.14v8.907c0 .093.047.14.14.14h3.173c1.07 0 1.937-.414 2.594-1.25.664-.832 1-1.941 1-3.328 0-1.383-.336-2.5-1-3.344-.657-.843-1.524-1.265-2.594-1.265Zm0 0"/></g></g><g clip-path="url(#h)"><g fill="#17171c" clip-path="url(#i)" transform="translate(0 84)"><path d="M28.474 12.202v6.218c0 3.625-.836 6.32-2.5 8.078-1.668 1.75-3.996 2.625-6.984 2.625H13.6v18.641H2.192V2.014h15.703c3.375 0 5.977.887 7.813 2.656 1.843 1.774 2.765 4.282 2.765 7.532Zm-10 6.593v-6.468c0-1.75-.898-2.625-2.687-2.625h-2.188V21.42h2.188c1.789 0 2.687-.875 2.687-2.625ZM61.011 47.764H49.23l-.578-8.078h-4.297l-.578 8.078H31.995l5.766-45.75H54.73Zm-16.656-16.14h4.093l-2.046-21.532h-.125ZM78.698 37.186c0 1.418.211 2.351.64 2.797.427.449.958.672 1.595.672.644 0 1.18-.223 1.609-.672.426-.446.64-1.38.64-2.797V2.014h11.782V35.53c0 8.804-4.68 13.203-14.031 13.203-9.356 0-14.032-4.399-14.032-13.203V2.014h11.797ZM114.384 38.92h7.813v8.844h-19.61V2.014h11.797ZM175.378 10.217v5.516c0 2.43-.672 4.137-2.016 5.125-1.343.98-3.234 1.492-5.671 1.531l-.125.125c2.851.18 4.992 1.059 6.421 2.64 1.438 1.575 2.157 3.56 2.157 5.954v6.86c0 3.374-.934 5.855-2.797 7.437-1.856 1.574-4.574 2.359-8.156 2.359h-16.282V2.014h16.985c3.207 0 5.586.664 7.14 1.984 1.563 1.325 2.344 3.399 2.344 6.22Zm-13.719 9.61c.895 0 1.567-.274 2.016-.829.457-.562.687-1.18.687-1.859v-5.125c0-.602-.214-1.203-.64-1.797-.43-.601-1.156-.906-2.188-.906h-1.218v10.516Zm2.703 17.5v-7.829c0-.894-.25-1.578-.75-2.046-.492-.47-1.183-.704-2.078-.704h-1.218v13.329c.175.043.41.062.703.062 1.031 0 1.843-.21 2.437-.64.602-.426.906-1.149.906-2.172ZM209.784 11.045v4.61c0 2.523-.578 4.414-1.734 5.672-1.156 1.261-2.887 1.98-5.188 2.156v.125c2.52.168 4.38.89 5.578 2.172 1.196 1.28 1.797 3.183 1.797 5.703v16.281h-11.03V30.202c0-2.52-1.028-3.782-3.079-3.782-.469 0-.918.07-1.344.203v21.141h-11.406V2.014h13.781c2.727 0 4.969.203 6.719.61 1.758.406 3.18 1.261 4.266 2.562 1.093 1.305 1.64 3.258 1.64 5.86Zm-14.156 8.453c1.363 0 2.3-.304 2.812-.921a3.262 3.262 0 0 0 .766-2.141v-4.047c0-.77-.258-1.473-.766-2.11-.511-.644-1.43-.968-2.75-.968h-.906v10.187ZM231.878 1.045c4.57 0 8.05 1.094 10.437 3.282 2.395 2.18 3.594 5.699 3.594 10.562v20c0 4.824-1.187 8.34-3.562 10.547-2.368 2.2-5.856 3.297-10.47 3.297-4.616 0-8.109-1.078-10.484-3.235-2.367-2.164-3.546-5.703-3.546-10.609v-20c0-4.82 1.18-8.332 3.546-10.531 2.375-2.207 5.868-3.313 10.485-3.313Zm-2.235 10.516v26.656c0 .899.192 1.59.579 2.078.382.492.937.735 1.656.735.726 0 1.285-.243 1.672-.735.382-.488.578-1.18.578-2.078V11.561c0-.895-.196-1.586-.578-2.078-.387-.5-.946-.75-1.672-.75-1.492 0-2.235.945-2.235 2.828ZM266.22 33.67h.125l3.281-31.656h12.36l3.328 31.656h.14l2.75-31.656h11.407l-5.391 45.75h-14.922l-3.203-26.531h-.125l-3.531 26.531h-15l-5.313-45.75h11.406ZM322.546 24.764h.125V2.014h10v45.75h-10l-6.672-25.562h-.188v25.562h-10V2.014h10Zm0 0"/></g></g></g></svg>